<svg xmlns="http://www.w3.org/2000/svg" width="1000" height="560" viewBox="0 0 1000 560"><style>
text{font-family:"Noto Sans CJK SC","PingFang SC","Microsoft YaHei",Arial,sans-serif;fill:#172033}
.title{font-size:28px;font-weight:700}.label{font-size:19px;font-weight:650}.small{font-size:15px}.tiny{font-size:13px}.mono{font-size:15px;font-family:Menlo,Consolas,monospace}
.box{fill:#f8fafc;stroke:#334155;stroke-width:2}.accent{fill:#eef2ff;stroke:#4f46e5;stroke-width:2}.good{fill:#ecfdf5;stroke:#059669;stroke-width:2}.warn{fill:#fff7ed;stroke:#ea580c;stroke-width:2}.bad{fill:#fef2f2;stroke:#dc2626;stroke-width:2}.muted{fill:#f1f5f9;stroke:#64748b;stroke-width:1.7}
.line{stroke:#334155;stroke-width:2.4;fill:none}.thin{stroke:#64748b;stroke-width:1.6;fill:none}.dash{stroke:#64748b;stroke-width:2;stroke-dasharray:8 7;fill:none}
</style><defs><marker id="arrow" markerWidth="10" markerHeight="10" refX="8" refY="3" orient="auto" markerUnits="strokeWidth"><path d="M0,0 L0,6 L9,3 z" fill="#334155"/></marker><marker id="arrowAccent" markerWidth="10" markerHeight="10" refX="8" refY="3" orient="auto" markerUnits="strokeWidth"><path d="M0,0 L0,6 L9,3 z" fill="#4f46e5"/></marker></defs><rect width="100%" height="100%" fill="white"/><text x="500.0" y="40" text-anchor="middle" class="title">位示图：一个二进制位对应一个盘块</text><text x="220" y="139" text-anchor="end" class="tiny">0</text><rect x="250" y="110" width="42" height="42" rx="3" class="good"/><text x="271" y="137" text-anchor="middle" class="tiny">0</text><rect x="295" y="110" width="42" height="42" rx="3" class="warn"/><text x="316" y="137" text-anchor="middle" class="tiny">1</text><rect x="340" y="110" width="42" height="42" rx="3" class="warn"/><text x="361" y="137" text-anchor="middle" class="tiny">1</text><rect x="385" y="110" width="42" height="42" rx="3" class="good"/><text x="406" y="137" text-anchor="middle" class="tiny">0</text><rect x="430" y="110" width="42" height="42" rx="3" class="good"/><text x="451" y="137" text-anchor="middle" class="tiny">0</text><rect x="475" y="110" width="42" height="42" rx="3" class="good"/><text x="496" y="137" text-anchor="middle" class="tiny">0</text><rect x="520" y="110" width="42" height="42" rx="3" class="good"/><text x="541" y="137" text-anchor="middle" class="tiny">0</text><rect x="565" y="110" width="42" height="42" rx="3" class="good"/><text x="586" y="137" text-anchor="middle" class="tiny">0</text><text x="220" y="184" text-anchor="end" class="tiny">1</text><rect x="250" y="155" width="42" height="42" rx="3" class="good"/><text x="271" y="182" text-anchor="middle" class="tiny">0</text><rect x="295" y="155" width="42" height="42" rx="3" class="good"/><text x="316" y="182" text-anchor="middle" class="tiny">0</text><rect x="340" y="155" width="42" height="42" rx="3" class="good"/><text x="361" y="182" text-anchor="middle" class="tiny">0</text><rect x="385" y="155" width="42" height="42" rx="3" class="good"/><text x="406" y="182" text-anchor="middle" class="tiny">0</text><rect x="430" y="155" width="42" height="42" rx="3" class="good"/><text x="451" y="182" text-anchor="middle" class="tiny">0</text><rect x="475" y="155" width="42" height="42" rx="3" class="warn"/><text x="496" y="182" text-anchor="middle" class="tiny">1</text><rect x="520" y="155" width="42" height="42" rx="3" class="good"/><text x="541" y="182" text-anchor="middle" class="tiny">0</text><rect x="565" y="155" width="42" height="42" rx="3" class="good"/><text x="586" y="182" text-anchor="middle" class="tiny">0</text><text x="220" y="229" text-anchor="end" class="tiny">2</text><rect x="250" y="200" width="42" height="42" rx="3" class="good"/><text x="271" y="227" text-anchor="middle" class="tiny">0</text><rect x="295" y="200" width="42" height="42" rx="3" class="good"/><text x="316" y="227" text-anchor="middle" class="tiny">0</text><rect x="340" y="200" width="42" height="42" rx="3" class="good"/><text x="361" y="227" text-anchor="middle" class="tiny">0</text><rect x="385" y="200" width="42" height="42" rx="3" class="good"/><text x="406" y="227" text-anchor="middle" class="tiny">0</text><rect x="430" y="200" width="42" height="42" rx="3" class="good"/><text x="451" y="227" text-anchor="middle" class="tiny">0</text><rect x="475" y="200" width="42" height="42" rx="3" class="good"/><text x="496" y="227" text-anchor="middle" class="tiny">0</text><rect x="520" y="200" width="42" height="42" rx="3" class="good"/><text x="541" y="227" text-anchor="middle" class="tiny">0</text><rect x="565" y="200" width="42" height="42" rx="3" class="good"/><text x="586" y="227" text-anchor="middle" class="tiny">0</text><text x="220" y="274" text-anchor="end" class="tiny">3</text><rect x="250" y="245" width="42" height="42" rx="3" class="good"/><text x="271" y="272" text-anchor="middle" class="tiny">0</text><rect x="295" y="245" width="42" height="42" rx="3" class="good"/><text x="316" y="272" text-anchor="middle" class="tiny">0</text><rect x="340" y="245" width="42" height="42" rx="3" class="good"/><text x="361" y="272" text-anchor="middle" class="tiny">0</text><rect x="385" y="245" width="42" height="42" rx="3" class="good"/><text x="406" y="272" text-anchor="middle" class="tiny">0</text><rect x="430" y="245" width="42" height="42" rx="3" class="warn"/><text x="451" y="272" text-anchor="middle" class="tiny">1</text><rect x="475" y="245" width="42" height="42" rx="3" class="good"/><text x="496" y="272" text-anchor="middle" class="tiny">0</text><rect x="520" y="245" width="42" height="42" rx="3" class="good"/><text x="541" y="272" text-anchor="middle" class="tiny">0</text><rect x="565" y="245" width="42" height="42" rx="3" class="good"/><text x="586" y="272" text-anchor="middle" class="tiny">0</text><text x="220" y="319" text-anchor="end" class="tiny">4</text><rect x="250" y="290" width="42" height="42" rx="3" class="good"/><text x="271" y="317" text-anchor="middle" class="tiny">0</text><rect x="295" y="290" width="42" height="42" rx="3" class="good"/><text x="316" y="317" text-anchor="middle" class="tiny">0</text><rect x="340" y="290" width="42" height="42" rx="3" class="good"/><text x="361" y="317" text-anchor="middle" class="tiny">0</text><rect x="385" y="290" width="42" height="42" rx="3" class="good"/><text x="406" y="317" text-anchor="middle" class="tiny">0</text><rect x="430" y="290" width="42" height="42" rx="3" class="good"/><text x="451" y="317" text-anchor="middle" class="tiny">0</text><rect x="475" y="290" width="42" height="42" rx="3" class="good"/><text x="496" y="317" text-anchor="middle" class="tiny">0</text><rect x="520" y="290" width="42" height="42" rx="3" class="good"/><text x="541" y="317" text-anchor="middle" class="tiny">0</text><rect x="565" y="290" width="42" height="42" rx="3" class="good"/><text x="586" y="317" text-anchor="middle" class="tiny">0</text><text x="220" y="364" text-anchor="end" class="tiny">5</text><rect x="250" y="335" width="42" height="42" rx="3" class="good"/><text x="271" y="362" text-anchor="middle" class="tiny">0</text><rect x="295" y="335" width="42" height="42" rx="3" class="good"/><text x="316" y="362" text-anchor="middle" class="tiny">0</text><rect x="340" y="335" width="42" height="42" rx="3" class="good"/><text x="361" y="362" text-anchor="middle" class="tiny">0</text><rect x="385" y="335" width="42" height="42" rx="3" class="good"/><text x="406" y="362" text-anchor="middle" class="tiny">0</text><rect x="430" y="335" width="42" height="42" rx="3" class="good"/><text x="451" y="362" text-anchor="middle" class="tiny">0</text><rect x="475" y="335" width="42" height="42" rx="3" class="good"/><text x="496" y="362" text-anchor="middle" class="tiny">0</text><rect x="520" y="335" width="42" height="42" rx="3" class="good"/><text x="541" y="362" text-anchor="middle" class="tiny">0</text><rect x="565" y="335" width="42" height="42" rx="3" class="warn"/><text x="586" y="362" text-anchor="middle" class="tiny">1</text><text x="220" y="409" text-anchor="end" class="tiny">6</text><rect x="250" y="380" width="42" height="42" rx="3" class="warn"/><text x="271" y="407" text-anchor="middle" class="tiny">1</text><rect x="295" y="380" width="42" height="42" rx="3" class="good"/><text x="316" y="407" text-anchor="middle" class="tiny">0</text><rect x="340" y="380" width="42" height="42" rx="3" class="good"/><text x="361" y="407" text-anchor="middle" class="tiny">0</text><rect x="385" y="380" width="42" height="42" rx="3" class="good"/><text x="406" y="407" text-anchor="middle" class="tiny">0</text><rect x="430" y="380" width="42" height="42" rx="3" class="good"/><text x="451" y="407" text-anchor="middle" class="tiny">0</text><rect x="475" y="380" width="42" height="42" rx="3" class="good"/><text x="496" y="407" text-anchor="middle" class="tiny">0</text><rect x="520" y="380" width="42" height="42" rx="3" class="good"/><text x="541" y="407" text-anchor="middle" class="tiny">0</text><rect x="565" y="380" width="42" height="42" rx="3" class="good"/><text x="586" y="407" text-anchor="middle" class="tiny">0</text><text x="220" y="454" text-anchor="end" class="tiny">7</text><rect x="250" y="425" width="42" height="42" rx="3" class="good"/><text x="271" y="452" text-anchor="middle" class="tiny">0</text><rect x="295" y="425" width="42" height="42" rx="3" class="good"/><text x="316" y="452" text-anchor="middle" class="tiny">0</text><rect x="340" y="425" width="42" height="42" rx="3" class="good"/><text x="361" y="452" text-anchor="middle" class="tiny">0</text><rect x="385" y="425" width="42" height="42" rx="3" class="good"/><text x="406" y="452" text-anchor="middle" class="tiny">0</text><rect x="430" y="425" width="42" height="42" rx="3" class="good"/><text x="451" y="452" text-anchor="middle" class="tiny">0</text><rect x="475" y="425" width="42" height="42" rx="3" class="good"/><text x="496" y="452" text-anchor="middle" class="tiny">0</text><rect x="520" y="425" width="42" height="42" rx="3" class="good"/><text x="541" y="452" text-anchor="middle" class="tiny">0</text><rect x="565" y="425" width="42" height="42" rx="3" class="good"/><text x="586" y="452" text-anchor="middle" class="tiny">0</text><text x="271" y="92" text-anchor="middle" class="tiny">0</text><text x="316" y="92" text-anchor="middle" class="tiny">1</text><text x="361" y="92" text-anchor="middle" class="tiny">2</text><text x="406" y="92" text-anchor="middle" class="tiny">3</text><text x="451" y="92" text-anchor="middle" class="tiny">4</text><text x="496" y="92" text-anchor="middle" class="tiny">5</text><text x="541" y="92" text-anchor="middle" class="tiny">6</text><text x="586" y="92" text-anchor="middle" class="tiny">7</text><rect x="670" y="145" width="250" height="200" rx="12" class="accent"/><text x="795" y="180" text-anchor="middle" class="label">行列与盘块号</text><text x="795" y="225" text-anchor="middle" class="small"><tspan x="795" dy="0">每行 8 位</tspan><tspan x="795" dy="30">块号 = 行 × 8 + 列</tspan><tspan x="795" dy="30">例：(3,4) → 28</tspan></text><text x="795" y="330" text-anchor="middle" class="tiny">0/1 含义以题目约定为准</text><text x="500" y="505" text-anchor="middle" class="small">位示图查找连续空闲块方便，但磁盘越大，位示图本身也需要占用内存或磁盘空间。</text></svg>