<svg xmlns="http://www.w3.org/2000/svg" width="1100" height="600" viewBox="0 0 1100 600">
<defs>
<marker id="arrow" markerWidth="10" markerHeight="10" refX="8" refY="3" orient="auto" markerUnits="strokeWidth"><path d="M0,0 L0,6 L9,3 z" fill="#334155"/></marker>
<marker id="arrowBlue" markerWidth="10" markerHeight="10" refX="8" refY="3" orient="auto" markerUnits="strokeWidth"><path d="M0,0 L0,6 L9,3 z" fill="#2563eb"/></marker>
<marker id="arrowRed" markerWidth="10" markerHeight="10" refX="8" refY="3" orient="auto" markerUnits="strokeWidth"><path d="M0,0 L0,6 L9,3 z" fill="#dc2626"/></marker>
<filter id="shadow" x="-20%" y="-20%" width="140%" height="140%"><feDropShadow dx="0" dy="2" stdDeviation="3" flood-color="#0f172a" flood-opacity="0.10"/></filter>
</defs>
<rect width="100%" height="100%" fill="#ffffff"/>
<rect x="50" y="55" width="285" height="62" rx="14" fill="#eef2ff" stroke="#4f46e5" stroke-width="2"/>
<text x="192.5" y="91.0" text-anchor="middle" font-family="Noto Sans CJK SC, PingFang SC, Microsoft YaHei, Arial, sans-serif" font-size="16" font-weight="600" fill="#172033">
<tspan x="192.5" dy="0">应用数据</tspan>
</text>
<rect x="50" y="143" width="285" height="62" rx="14" fill="#eff6ff" stroke="#2563eb" stroke-width="2"/>
<text x="192.5" y="179.0" text-anchor="middle" font-family="Noto Sans CJK SC, PingFang SC, Microsoft YaHei, Arial, sans-serif" font-size="16" font-weight="600" fill="#172033">
<tspan x="192.5" dy="0">TCP/UDP 首部 + 数据</tspan>
</text>
<rect x="50" y="231" width="285" height="62" rx="14" fill="#ecfdf5" stroke="#059669" stroke-width="2"/>
<text x="192.5" y="267.0" text-anchor="middle" font-family="Noto Sans CJK SC, PingFang SC, Microsoft YaHei, Arial, sans-serif" font-size="16" font-weight="600" fill="#172033">
<tspan x="192.5" dy="0">IP 首部 + 运输层报文</tspan>
</text>
<rect x="50" y="319" width="285" height="62" rx="14" fill="#fff7ed" stroke="#ea580c" stroke-width="2"/>
<text x="192.5" y="355.0" text-anchor="middle" font-family="Noto Sans CJK SC, PingFang SC, Microsoft YaHei, Arial, sans-serif" font-size="16" font-weight="600" fill="#172033">
<tspan x="192.5" dy="0">MAC 首尾 + IP 数据报</tspan>
</text>
<rect x="50" y="407" width="285" height="62" rx="14" fill="#f8fafc" stroke="#334155" stroke-width="2"/>
<text x="192.5" y="443.0" text-anchor="middle" font-family="Noto Sans CJK SC, PingFang SC, Microsoft YaHei, Arial, sans-serif" font-size="16" font-weight="600" fill="#172033">
<tspan x="192.5" dy="0">电 / 光 / 无线信号</tspan>
</text>
<rect x="765" y="407" width="285" height="62" rx="14" fill="#eef2ff" stroke="#4f46e5" stroke-width="2"/>
<text x="907.5" y="443.0" text-anchor="middle" font-family="Noto Sans CJK SC, PingFang SC, Microsoft YaHei, Arial, sans-serif" font-size="16" font-weight="600" fill="#172033">
<tspan x="907.5" dy="0">应用数据</tspan>
</text>
<rect x="765" y="319" width="285" height="62" rx="14" fill="#eff6ff" stroke="#2563eb" stroke-width="2"/>
<text x="907.5" y="355.0" text-anchor="middle" font-family="Noto Sans CJK SC, PingFang SC, Microsoft YaHei, Arial, sans-serif" font-size="16" font-weight="600" fill="#172033">
<tspan x="907.5" dy="0">TCP/UDP 首部 + 数据</tspan>
</text>
<rect x="765" y="231" width="285" height="62" rx="14" fill="#ecfdf5" stroke="#059669" stroke-width="2"/>
<text x="907.5" y="267.0" text-anchor="middle" font-family="Noto Sans CJK SC, PingFang SC, Microsoft YaHei, Arial, sans-serif" font-size="16" font-weight="600" fill="#172033">
<tspan x="907.5" dy="0">IP 首部 + 运输层报文</tspan>
</text>
<rect x="765" y="143" width="285" height="62" rx="14" fill="#fff7ed" stroke="#ea580c" stroke-width="2"/>
<text x="907.5" y="179.0" text-anchor="middle" font-family="Noto Sans CJK SC, PingFang SC, Microsoft YaHei, Arial, sans-serif" font-size="16" font-weight="600" fill="#172033">
<tspan x="907.5" dy="0">MAC 首尾 + IP 数据报</tspan>
</text>
<rect x="765" y="55" width="285" height="62" rx="14" fill="#f8fafc" stroke="#334155" stroke-width="2"/>
<text x="907.5" y="91.0" text-anchor="middle" font-family="Noto Sans CJK SC, PingFang SC, Microsoft YaHei, Arial, sans-serif" font-size="16" font-weight="600" fill="#172033">
<tspan x="907.5" dy="0">电 / 光 / 无线信号</tspan>
</text>
<line x1="192" y1="117" x2="192" y2="143" stroke="#334155" stroke-width="2.2" fill="none" marker-end="url(#arrow)"/>
<line x1="192" y1="205" x2="192" y2="231" stroke="#334155" stroke-width="2.2" fill="none" marker-end="url(#arrow)"/>
<line x1="192" y1="293" x2="192" y2="319" stroke="#334155" stroke-width="2.2" fill="none" marker-end="url(#arrow)"/>
<line x1="192" y1="381" x2="192" y2="407" stroke="#334155" stroke-width="2.2" fill="none" marker-end="url(#arrow)"/>
<line x1="908" y1="143" x2="908" y2="117" stroke="#334155" stroke-width="2.2" fill="none" marker-end="url(#arrow)"/>
<line x1="908" y1="231" x2="908" y2="205" stroke="#334155" stroke-width="2.2" fill="none" marker-end="url(#arrow)"/>
<line x1="908" y1="319" x2="908" y2="293" stroke="#334155" stroke-width="2.2" fill="none" marker-end="url(#arrow)"/>
<line x1="908" y1="407" x2="908" y2="381" stroke="#334155" stroke-width="2.2" fill="none" marker-end="url(#arrow)"/>
<rect x="430" y="120" width="240" height="70" rx="14" fill="#ecfdf5" stroke="#059669" stroke-width="2"/>
<text x="550.0" y="148.5" text-anchor="middle" font-family="Noto Sans CJK SC, PingFang SC, Microsoft YaHei, Arial, sans-serif" font-size="16" font-weight="600" fill="#172033">
<tspan x="550.0" dy="0">路由器逐跳转发</tspan>
<tspan x="550.0" dy="23">只解释 IP 首部</tspan>
</text>
<rect x="430" y="255" width="240" height="70" rx="14" fill="#fff7ed" stroke="#ea580c" stroke-width="2"/>
<text x="550.0" y="283.5" text-anchor="middle" font-family="Noto Sans CJK SC, PingFang SC, Microsoft YaHei, Arial, sans-serif" font-size="16" font-weight="600" fill="#172033">
<tspan x="550.0" dy="0">每一跳重新封装</tspan>
<tspan x="550.0" dy="23">新的源 / 目的 MAC</tspan>
</text>
<rect x="430" y="390" width="240" height="70" rx="14" fill="#eef2ff" stroke="#4f46e5" stroke-width="2"/>
<text x="550.0" y="418.5" text-anchor="middle" font-family="Noto Sans CJK SC, PingFang SC, Microsoft YaHei, Arial, sans-serif" font-size="16" font-weight="600" fill="#172033">
<tspan x="550.0" dy="0">端到端保持</tspan>
<tspan x="550.0" dy="23">源 / 目的 IP 与端口</tspan>
</text>
<line x1="335" y1="496" x2="430" y2="425" stroke="#334155" stroke-width="2.2" fill="none" marker-end="url(#arrow)"/>
<line x1="670" y1="425" x2="765" y2="496" stroke="#334155" stroke-width="2.2" fill="none" marker-end="url(#arrow)"/>
<line x1="335" y1="320" x2="430" y2="290" stroke="#334155" stroke-width="2.2" fill="none" marker-end="url(#arrow)"/>
<line x1="670" y1="290" x2="765" y2="320" stroke="#334155" stroke-width="2.2" fill="none" marker-end="url(#arrow)"/>
<text x="192" y="535" text-anchor="middle" dominant-baseline="middle" font-family="Noto Sans CJK SC, PingFang SC, Microsoft YaHei, Arial, sans-serif" font-size="18" font-weight="700" fill="#172033">发送端：封装</text>
<text x="908" y="535" text-anchor="middle" dominant-baseline="middle" font-family="Noto Sans CJK SC, PingFang SC, Microsoft YaHei, Arial, sans-serif" font-size="18" font-weight="700" fill="#172033">接收端：解封装</text>
</svg>