<svg xmlns="http://www.w3.org/2000/svg" width="1050" height="560" viewBox="0 0 1050 560">
<defs>
<marker id="arrow" markerWidth="10" markerHeight="10" refX="8" refY="3" orient="auto" markerUnits="strokeWidth"><path d="M0,0 L0,6 L9,3 z" fill="#334155"/></marker>
<marker id="arrowBlue" markerWidth="10" markerHeight="10" refX="8" refY="3" orient="auto" markerUnits="strokeWidth"><path d="M0,0 L0,6 L9,3 z" fill="#2563eb"/></marker>
<marker id="arrowRed" markerWidth="10" markerHeight="10" refX="8" refY="3" orient="auto" markerUnits="strokeWidth"><path d="M0,0 L0,6 L9,3 z" fill="#dc2626"/></marker>
<filter id="shadow" x="-20%" y="-20%" width="140%" height="140%"><feDropShadow dx="0" dy="2" stdDeviation="3" flood-color="#0f172a" flood-opacity="0.10"/></filter>
</defs>
<rect width="100%" height="100%" fill="#ffffff"/>
<text x="190" y="45" text-anchor="middle" dominant-baseline="middle" font-family="Noto Sans CJK SC, PingFang SC, Microsoft YaHei, Arial, sans-serif" font-size="21" font-weight="700" fill="#172033">OSI 七层</text>
<text x="515" y="45" text-anchor="middle" dominant-baseline="middle" font-family="Noto Sans CJK SC, PingFang SC, Microsoft YaHei, Arial, sans-serif" font-size="21" font-weight="700" fill="#172033">TCP/IP 四层</text>
<text x="840" y="45" text-anchor="middle" dominant-baseline="middle" font-family="Noto Sans CJK SC, PingFang SC, Microsoft YaHei, Arial, sans-serif" font-size="21" font-weight="700" fill="#172033">教学五层</text>
<rect x="60" y="75" width="260" height="48" rx="14" fill="#eef2ff" stroke="#4f46e5" stroke-width="2"/>
<text x="190.0" y="104.0" text-anchor="middle" font-family="Noto Sans CJK SC, PingFang SC, Microsoft YaHei, Arial, sans-serif" font-size="15" font-weight="600" fill="#172033">
<tspan x="190.0" dy="0">应用层</tspan>
</text>
<rect x="60" y="137" width="260" height="48" rx="14" fill="#eef2ff" stroke="#4f46e5" stroke-width="2"/>
<text x="190.0" y="166.0" text-anchor="middle" font-family="Noto Sans CJK SC, PingFang SC, Microsoft YaHei, Arial, sans-serif" font-size="15" font-weight="600" fill="#172033">
<tspan x="190.0" dy="0">表示层</tspan>
</text>
<rect x="60" y="199" width="260" height="48" rx="14" fill="#eef2ff" stroke="#4f46e5" stroke-width="2"/>
<text x="190.0" y="228.0" text-anchor="middle" font-family="Noto Sans CJK SC, PingFang SC, Microsoft YaHei, Arial, sans-serif" font-size="15" font-weight="600" fill="#172033">
<tspan x="190.0" dy="0">会话层</tspan>
</text>
<rect x="60" y="261" width="260" height="48" rx="14" fill="#eff6ff" stroke="#2563eb" stroke-width="2"/>
<text x="190.0" y="290.0" text-anchor="middle" font-family="Noto Sans CJK SC, PingFang SC, Microsoft YaHei, Arial, sans-serif" font-size="15" font-weight="600" fill="#172033">
<tspan x="190.0" dy="0">运输层</tspan>
</text>
<rect x="60" y="323" width="260" height="48" rx="14" fill="#ecfdf5" stroke="#059669" stroke-width="2"/>
<text x="190.0" y="352.0" text-anchor="middle" font-family="Noto Sans CJK SC, PingFang SC, Microsoft YaHei, Arial, sans-serif" font-size="15" font-weight="600" fill="#172033">
<tspan x="190.0" dy="0">网络层</tspan>
</text>
<rect x="60" y="385" width="260" height="48" rx="14" fill="#fff7ed" stroke="#ea580c" stroke-width="2"/>
<text x="190.0" y="414.0" text-anchor="middle" font-family="Noto Sans CJK SC, PingFang SC, Microsoft YaHei, Arial, sans-serif" font-size="15" font-weight="600" fill="#172033">
<tspan x="190.0" dy="0">数据链路层</tspan>
</text>
<rect x="60" y="447" width="260" height="48" rx="14" fill="#f8fafc" stroke="#334155" stroke-width="2"/>
<text x="190.0" y="476.0" text-anchor="middle" font-family="Noto Sans CJK SC, PingFang SC, Microsoft YaHei, Arial, sans-serif" font-size="15" font-weight="600" fill="#172033">
<tspan x="190.0" dy="0">物理层</tspan>
</text>
<rect x="385" y="75" width="260" height="144" rx="14" fill="#eef2ff" stroke="#4f46e5" stroke-width="2"/>
<text x="515.0" y="152.0" text-anchor="middle" font-family="Noto Sans CJK SC, PingFang SC, Microsoft YaHei, Arial, sans-serif" font-size="16" font-weight="600" fill="#172033">
<tspan x="515.0" dy="0">应用层</tspan>
</text>
<rect x="385" y="231" width="260" height="48" rx="14" fill="#eff6ff" stroke="#2563eb" stroke-width="2"/>
<text x="515.0" y="260.0" text-anchor="middle" font-family="Noto Sans CJK SC, PingFang SC, Microsoft YaHei, Arial, sans-serif" font-size="16" font-weight="600" fill="#172033">
<tspan x="515.0" dy="0">运输层</tspan>
</text>
<rect x="385" y="291" width="260" height="48" rx="14" fill="#ecfdf5" stroke="#059669" stroke-width="2"/>
<text x="515.0" y="320.0" text-anchor="middle" font-family="Noto Sans CJK SC, PingFang SC, Microsoft YaHei, Arial, sans-serif" font-size="16" font-weight="600" fill="#172033">
<tspan x="515.0" dy="0">网际层</tspan>
</text>
<rect x="385" y="351" width="260" height="110" rx="14" fill="#fff7ed" stroke="#ea580c" stroke-width="2"/>
<text x="515.0" y="411.0" text-anchor="middle" font-family="Noto Sans CJK SC, PingFang SC, Microsoft YaHei, Arial, sans-serif" font-size="16" font-weight="600" fill="#172033">
<tspan x="515.0" dy="0">网络接口层</tspan>
</text>
<rect x="710" y="75" width="260" height="68" rx="14" fill="#eef2ff" stroke="#4f46e5" stroke-width="2"/>
<text x="840.0" y="114.0" text-anchor="middle" font-family="Noto Sans CJK SC, PingFang SC, Microsoft YaHei, Arial, sans-serif" font-size="16" font-weight="600" fill="#172033">
<tspan x="840.0" dy="0">应用层</tspan>
</text>
<rect x="710" y="161" width="260" height="68" rx="14" fill="#eff6ff" stroke="#2563eb" stroke-width="2"/>
<text x="840.0" y="200.0" text-anchor="middle" font-family="Noto Sans CJK SC, PingFang SC, Microsoft YaHei, Arial, sans-serif" font-size="16" font-weight="600" fill="#172033">
<tspan x="840.0" dy="0">运输层</tspan>
</text>
<rect x="710" y="247" width="260" height="68" rx="14" fill="#ecfdf5" stroke="#059669" stroke-width="2"/>
<text x="840.0" y="286.0" text-anchor="middle" font-family="Noto Sans CJK SC, PingFang SC, Microsoft YaHei, Arial, sans-serif" font-size="16" font-weight="600" fill="#172033">
<tspan x="840.0" dy="0">网络层</tspan>
</text>
<rect x="710" y="333" width="260" height="68" rx="14" fill="#fff7ed" stroke="#ea580c" stroke-width="2"/>
<text x="840.0" y="372.0" text-anchor="middle" font-family="Noto Sans CJK SC, PingFang SC, Microsoft YaHei, Arial, sans-serif" font-size="16" font-weight="600" fill="#172033">
<tspan x="840.0" dy="0">数据链路层</tspan>
</text>
<rect x="710" y="419" width="260" height="68" rx="14" fill="#f8fafc" stroke="#334155" stroke-width="2"/>
<text x="840.0" y="458.0" text-anchor="middle" font-family="Noto Sans CJK SC, PingFang SC, Microsoft YaHei, Arial, sans-serif" font-size="16" font-weight="600" fill="#172033">
<tspan x="840.0" dy="0">物理层</tspan>
</text>
<line x1="320" y1="99" x2="385" y2="109" stroke="#64748b" stroke-width="1.5" fill="none" stroke-dasharray="5 5"/>
<line x1="320" y1="161" x2="385" y2="109" stroke="#64748b" stroke-width="1.5" fill="none" stroke-dasharray="5 5"/>
<line x1="320" y1="223" x2="385" y2="109" stroke="#64748b" stroke-width="1.5" fill="none" stroke-dasharray="5 5"/>
<line x1="320" y1="261" x2="385" y2="255" stroke="#64748b" stroke-width="1.5" fill="none" stroke-dasharray="5 5"/>
<line x1="320" y1="323" x2="385" y2="315" stroke="#64748b" stroke-width="1.5" fill="none" stroke-dasharray="5 5"/>
<line x1="320" y1="385" x2="385" y2="385" stroke="#64748b" stroke-width="1.5" fill="none" stroke-dasharray="5 5"/>
<line x1="320" y1="447" x2="385" y2="455" stroke="#64748b" stroke-width="1.5" fill="none" stroke-dasharray="5 5"/>
<line x1="645" y1="109" x2="710" y2="109" stroke="#64748b" stroke-width="1.5" fill="none" stroke-dasharray="5 5"/>
<line x1="645" y1="255" x2="710" y2="195" stroke="#64748b" stroke-width="1.5" fill="none" stroke-dasharray="5 5"/>
<line x1="645" y1="315" x2="710" y2="281" stroke="#64748b" stroke-width="1.5" fill="none" stroke-dasharray="5 5"/>
<line x1="645" y1="385" x2="710" y2="367" stroke="#64748b" stroke-width="1.5" fill="none" stroke-dasharray="5 5"/>
<line x1="645" y1="447" x2="710" y2="453" stroke="#64748b" stroke-width="1.5" fill="none" stroke-dasharray="5 5"/>
</svg>