<svg xmlns="http://www.w3.org/2000/svg" width="1100" height="560" viewBox="0 0 1100 560">
<defs>
<marker id="arrow" markerWidth="10" markerHeight="10" refX="8" refY="3" orient="auto" markerUnits="strokeWidth"><path d="M0,0 L0,6 L9,3 z" fill="#334155"/></marker>
<marker id="arrowBlue" markerWidth="10" markerHeight="10" refX="8" refY="3" orient="auto" markerUnits="strokeWidth"><path d="M0,0 L0,6 L9,3 z" fill="#2563eb"/></marker>
<marker id="arrowRed" markerWidth="10" markerHeight="10" refX="8" refY="3" orient="auto" markerUnits="strokeWidth"><path d="M0,0 L0,6 L9,3 z" fill="#dc2626"/></marker>
<filter id="shadow" x="-20%" y="-20%" width="140%" height="140%"><feDropShadow dx="0" dy="2" stdDeviation="3" flood-color="#0f172a" flood-opacity="0.10"/></filter>
</defs>
<rect width="100%" height="100%" fill="#ffffff"/>
<line x1="90" y1="475" x2="1030" y2="475" stroke="#334155" stroke-width="2" fill="none" marker-end="url(#arrow)"/>
<line x1="90" y1="475" x2="90" y2="55" stroke="#334155" stroke-width="2" fill="none" marker-end="url(#arrow)"/>
<text x="1040" y="498" text-anchor="end" dominant-baseline="middle" font-family="Noto Sans CJK SC, PingFang SC, Microsoft YaHei, Arial, sans-serif" font-size="15" font-weight="700" fill="#172033">时间 / RTT</text>
<text x="30" y="70" text-anchor="start" dominant-baseline="middle" font-family="Noto Sans CJK SC, PingFang SC, Microsoft YaHei, Arial, sans-serif" font-size="15" font-weight="700" fill="#172033">cwnd</text>
<line x1="90" y1="235" x2="1030" y2="235" stroke="#64748b" stroke-width="1.5" fill="none" stroke-dasharray="7 6"/>
<text x="100" y="215" text-anchor="start" dominant-baseline="middle" font-family="Noto Sans CJK SC, PingFang SC, Microsoft YaHei, Arial, sans-serif" font-size="14" font-weight="600" fill="#64748b">ssthresh</text>
<polyline points="100,455 145,430 190,380 235,290 280,160 380,130 480,100 540,330 590,300 650,270 710,240 770,210 830,180 890,150 950,120" fill="none" stroke="#4f46e5" stroke-width="4"/>
<line x1="520" y1="80" x2="560" y2="120" stroke="#dc2626" stroke-width="4" fill="none"/>
<line x1="560" y1="80" x2="520" y2="120" stroke="#dc2626" stroke-width="4" fill="none"/>
<text x="540" y="60" text-anchor="middle" dominant-baseline="middle" font-family="Noto Sans CJK SC, PingFang SC, Microsoft YaHei, Arial, sans-serif" font-size="15" font-weight="700" fill="#dc2626">检测到拥塞</text>
<rect x="145" y="90" width="190" height="75" rx="14" fill="#eef2ff" stroke="#4f46e5" stroke-width="2"/>
<text x="240.0" y="121.0" text-anchor="middle" font-family="Noto Sans CJK SC, PingFang SC, Microsoft YaHei, Arial, sans-serif" font-size="15" font-weight="600" fill="#172033">
<tspan x="240.0" dy="0">慢启动</tspan>
<tspan x="240.0" dy="23">近似指数增长</tspan>
</text>
<rect x="340" y="330" width="180" height="75" rx="14" fill="#ecfdf5" stroke="#059669" stroke-width="2"/>
<text x="430.0" y="361.0" text-anchor="middle" font-family="Noto Sans CJK SC, PingFang SC, Microsoft YaHei, Arial, sans-serif" font-size="15" font-weight="600" fill="#172033">
<tspan x="430.0" dy="0">拥塞避免</tspan>
<tspan x="430.0" dy="23">线性增长</tspan>
</text>
<rect x="610" y="360" width="220" height="75" rx="14" fill="#fff7ed" stroke="#ea580c" stroke-width="2"/>
<text x="720.0" y="391.0" text-anchor="middle" font-family="Noto Sans CJK SC, PingFang SC, Microsoft YaHei, Arial, sans-serif" font-size="15" font-weight="600" fill="#172033">
<tspan x="720.0" dy="0">快重传 / 快恢复</tspan>
<tspan x="720.0" dy="23">避免完全回到初始值</tspan>
</text>
</svg>