<svg xmlns="http://www.w3.org/2000/svg" width="1100" height="600" viewBox="0 0 1100 600">
<defs>
<marker id="arrow" markerWidth="10" markerHeight="10" refX="8" refY="3" orient="auto" markerUnits="strokeWidth"><path d="M0,0 L0,6 L9,3 z" fill="#334155"/></marker>
<marker id="arrowBlue" markerWidth="10" markerHeight="10" refX="8" refY="3" orient="auto" markerUnits="strokeWidth"><path d="M0,0 L0,6 L9,3 z" fill="#2563eb"/></marker>
<marker id="arrowRed" markerWidth="10" markerHeight="10" refX="8" refY="3" orient="auto" markerUnits="strokeWidth"><path d="M0,0 L0,6 L9,3 z" fill="#dc2626"/></marker>
<filter id="shadow" x="-20%" y="-20%" width="140%" height="140%"><feDropShadow dx="0" dy="2" stdDeviation="3" flood-color="#0f172a" flood-opacity="0.10"/></filter>
</defs>
<rect width="100%" height="100%" fill="#ffffff"/>
<text x="140" y="45" text-anchor="middle" dominant-baseline="middle" font-family="Noto Sans CJK SC, PingFang SC, Microsoft YaHei, Arial, sans-serif" font-size="19" font-weight="700" fill="#172033">发送方</text>
<text x="960" y="45" text-anchor="middle" dominant-baseline="middle" font-family="Noto Sans CJK SC, PingFang SC, Microsoft YaHei, Arial, sans-serif" font-size="19" font-weight="700" fill="#172033">接收方</text>
<line x1="140" y1="70" x2="140" y2="550" stroke="#334155" stroke-width="2" fill="none"/>
<line x1="960" y1="70" x2="960" y2="550" stroke="#334155" stroke-width="2" fill="none"/>
<line x1="140" y1="110" x2="960" y2="110" stroke="#2563eb" stroke-width="3" fill="none" marker-end="url(#arrowBlue)"/>
<rect x="370" y="82" width="350" height="50" rx="14" fill="#eff6ff" stroke="#2563eb" stroke-width="2"/>
<text x="545.0" y="112.0" text-anchor="middle" font-family="Noto Sans CJK SC, PingFang SC, Microsoft YaHei, Arial, sans-serif" font-size="14" font-weight="600" fill="#172033">
<tspan x="545.0" dy="0">seq=1000，数据 400 B</tspan>
</text>
<line x1="140" y1="190" x2="960" y2="190" stroke="#2563eb" stroke-width="3" fill="none" marker-end="url(#arrowBlue)"/>
<rect x="370" y="162" width="350" height="50" rx="14" fill="#eff6ff" stroke="#2563eb" stroke-width="2"/>
<text x="545.0" y="192.0" text-anchor="middle" font-family="Noto Sans CJK SC, PingFang SC, Microsoft YaHei, Arial, sans-serif" font-size="14" font-weight="600" fill="#172033">
<tspan x="545.0" dy="0">seq=1400，数据 400 B</tspan>
</text>
<line x1="140" y1="270" x2="960" y2="270" stroke="#2563eb" stroke-width="3" fill="none" marker-end="url(#arrowBlue)"/>
<rect x="370" y="242" width="350" height="50" rx="14" fill="#eff6ff" stroke="#2563eb" stroke-width="2"/>
<text x="545.0" y="272.0" text-anchor="middle" font-family="Noto Sans CJK SC, PingFang SC, Microsoft YaHei, Arial, sans-serif" font-size="14" font-weight="600" fill="#172033">
<tspan x="545.0" dy="0">seq=1800，数据 400 B</tspan>
</text>
<line x1="680" y1="160" x2="740" y2="220" stroke="#dc2626" stroke-width="5" fill="none"/>
<line x1="740" y1="160" x2="680" y2="220" stroke="#dc2626" stroke-width="5" fill="none"/>
<text x="710" y="140" text-anchor="middle" dominant-baseline="middle" font-family="Noto Sans CJK SC, PingFang SC, Microsoft YaHei, Arial, sans-serif" font-size="15" font-weight="700" fill="#dc2626">丢失</text>
<line x1="960" y1="340" x2="140" y2="340" stroke="#ea580c" stroke-width="3" fill="none" marker-end="url(#arrow)"/>
<rect x="430" y="315" width="260" height="46" rx="14" fill="#fff7ed" stroke="#ea580c" stroke-width="2"/>
<text x="560.0" y="343.0" text-anchor="middle" font-family="Noto Sans CJK SC, PingFang SC, Microsoft YaHei, Arial, sans-serif" font-size="14" font-weight="600" fill="#172033">
<tspan x="560.0" dy="0">ACK=1400</tspan>
</text>
<line x1="960" y1="390" x2="140" y2="390" stroke="#ea580c" stroke-width="3" fill="none" marker-end="url(#arrow)"/>
<rect x="430" y="365" width="260" height="46" rx="14" fill="#fff7ed" stroke="#ea580c" stroke-width="2"/>
<text x="560.0" y="393.0" text-anchor="middle" font-family="Noto Sans CJK SC, PingFang SC, Microsoft YaHei, Arial, sans-serif" font-size="14" font-weight="600" fill="#172033">
<tspan x="560.0" dy="0">ACK=1400</tspan>
</text>
<line x1="140" y1="475" x2="960" y2="475" stroke="#059669" stroke-width="3" fill="none" marker-end="url(#arrow)"/>
<rect x="390" y="445" width="320" height="55" rx="14" fill="#ecfdf5" stroke="#059669" stroke-width="2"/>
<text x="550.0" y="477.5" text-anchor="middle" font-family="Noto Sans CJK SC, PingFang SC, Microsoft YaHei, Arial, sans-serif" font-size="14" font-weight="600" fill="#172033">
<tspan x="550.0" dy="0">超时或重复 ACK → 重传 seq=1400</tspan>
</text>
<text x="550" y="560" text-anchor="middle" dominant-baseline="middle" font-family="Noto Sans CJK SC, PingFang SC, Microsoft YaHei, Arial, sans-serif" font-size="16" font-weight="700" fill="#172033">确认号表示“下一个期望收到的字节序号”</text>
</svg>