<svg xmlns="http://www.w3.org/2000/svg" width="1080" height="520" viewBox="0 0 1080 520">
<defs>
<marker id="arrow" markerWidth="10" markerHeight="10" refX="8" refY="3" orient="auto" markerUnits="strokeWidth"><path d="M0,0 L0,6 L9,3 z" fill="#334155"/></marker>
<marker id="arrowBlue" markerWidth="10" markerHeight="10" refX="8" refY="3" orient="auto" markerUnits="strokeWidth"><path d="M0,0 L0,6 L9,3 z" fill="#2563eb"/></marker>
<marker id="arrowRed" markerWidth="10" markerHeight="10" refX="8" refY="3" orient="auto" markerUnits="strokeWidth"><path d="M0,0 L0,6 L9,3 z" fill="#dc2626"/></marker>
<filter id="shadow" x="-20%" y="-20%" width="140%" height="140%"><feDropShadow dx="0" dy="2" stdDeviation="3" flood-color="#0f172a" flood-opacity="0.10"/></filter>
</defs>
<rect width="100%" height="100%" fill="#ffffff"/>
<rect x="55" y="65" width="280" height="65" rx="14" fill="#f8fafc" stroke="#334155" stroke-width="2"/>
<text x="195.0" y="102.5" text-anchor="middle" font-family="Noto Sans CJK SC, PingFang SC, Microsoft YaHei, Arial, sans-serif" font-size="15" font-weight="600" fill="#172033">
<tspan x="195.0" dy="0">156.26.56.0/24</tspan>
</text>
<rect x="55" y="160" width="280" height="65" rx="14" fill="#f8fafc" stroke="#334155" stroke-width="2"/>
<text x="195.0" y="197.5" text-anchor="middle" font-family="Noto Sans CJK SC, PingFang SC, Microsoft YaHei, Arial, sans-serif" font-size="15" font-weight="600" fill="#172033">
<tspan x="195.0" dy="0">156.26.57.0/24</tspan>
</text>
<rect x="55" y="255" width="280" height="65" rx="14" fill="#f8fafc" stroke="#334155" stroke-width="2"/>
<text x="195.0" y="292.5" text-anchor="middle" font-family="Noto Sans CJK SC, PingFang SC, Microsoft YaHei, Arial, sans-serif" font-size="15" font-weight="600" fill="#172033">
<tspan x="195.0" dy="0">156.26.58.0/24</tspan>
</text>
<rect x="55" y="350" width="280" height="65" rx="14" fill="#f8fafc" stroke="#334155" stroke-width="2"/>
<text x="195.0" y="387.5" text-anchor="middle" font-family="Noto Sans CJK SC, PingFang SC, Microsoft YaHei, Arial, sans-serif" font-size="15" font-weight="600" fill="#172033">
<tspan x="195.0" dy="0">156.26.59.0/24</tspan>
</text>
<rect x="450" y="150" width="250" height="155" rx="14" fill="#eef2ff" stroke="#4f46e5" stroke-width="2"/>
<text x="575.0" y="209.5" text-anchor="middle" font-family="Noto Sans CJK SC, PingFang SC, Microsoft YaHei, Arial, sans-serif" font-size="17" font-weight="600" fill="#172033">
<tspan x="575.0" dy="0">共同前缀</tspan>
<tspan x="575.0" dy="23">前 22 位相同</tspan>
<tspan x="575.0" dy="23">第三字节 56～59</tspan>
</text>
<line x1="335" y1="97" x2="450" y2="190" stroke="#334155" stroke-width="2.2" fill="none" marker-end="url(#arrow)"/>
<line x1="335" y1="192" x2="450" y2="208" stroke="#334155" stroke-width="2.2" fill="none" marker-end="url(#arrow)"/>
<line x1="335" y1="287" x2="450" y2="226" stroke="#334155" stroke-width="2.2" fill="none" marker-end="url(#arrow)"/>
<line x1="335" y1="382" x2="450" y2="244" stroke="#334155" stroke-width="2.2" fill="none" marker-end="url(#arrow)"/>
<rect x="810" y="175" width="225" height="100" rx="14" fill="#ecfdf5" stroke="#059669" stroke-width="2"/>
<text x="922.5" y="218.5" text-anchor="middle" font-family="Noto Sans CJK SC, PingFang SC, Microsoft YaHei, Arial, sans-serif" font-size="17" font-weight="600" fill="#172033">
<tspan x="922.5" dy="0">聚合路由</tspan>
<tspan x="922.5" dy="23">156.26.56.0/22</tspan>
</text>
<line x1="700" y1="228" x2="810" y2="228" stroke="#334155" stroke-width="2.2" fill="none" marker-end="url(#arrow)"/>
<rect x="745" y="355" width="290" height="90" rx="14" fill="#fff7ed" stroke="#ea580c" stroke-width="2"/>
<text x="890.0" y="393.5" text-anchor="middle" font-family="Noto Sans CJK SC, PingFang SC, Microsoft YaHei, Arial, sans-serif" font-size="15" font-weight="600" fill="#172033">
<tspan x="890.0" dy="0">前提：连续、边界对齐</tspan>
<tspan x="890.0" dy="23">并且使用同一下一跳</tspan>
</text>
</svg>