<svg xmlns="http://www.w3.org/2000/svg" width="1080" height="500" viewBox="0 0 1080 500">
<defs>
<marker id="arrow" markerWidth="10" markerHeight="10" refX="8" refY="3" orient="auto" markerUnits="strokeWidth"><path d="M0,0 L0,6 L9,3 z" fill="#334155"/></marker>
<marker id="arrowBlue" markerWidth="10" markerHeight="10" refX="8" refY="3" orient="auto" markerUnits="strokeWidth"><path d="M0,0 L0,6 L9,3 z" fill="#2563eb"/></marker>
<marker id="arrowRed" markerWidth="10" markerHeight="10" refX="8" refY="3" orient="auto" markerUnits="strokeWidth"><path d="M0,0 L0,6 L9,3 z" fill="#dc2626"/></marker>
<filter id="shadow" x="-20%" y="-20%" width="140%" height="140%"><feDropShadow dx="0" dy="2" stdDeviation="3" flood-color="#0f172a" flood-opacity="0.10"/></filter>
</defs>
<rect width="100%" height="100%" fill="#ffffff"/>
<rect x="60" y="55" width="300" height="62" rx="14" fill="#f8fafc" stroke="#334155" stroke-width="2"/>
<text x="210.0" y="79.5" text-anchor="middle" font-family="Noto Sans CJK SC, PingFang SC, Microsoft YaHei, Arial, sans-serif" font-size="15" font-weight="600" fill="#172033">
<tspan x="210.0" dy="0">0.0.0.0/0</tspan>
<tspan x="210.0" dy="23">默认</tspan>
</text>
<rect x="60" y="143" width="300" height="62" rx="14" fill="#f8fafc" stroke="#334155" stroke-width="2"/>
<text x="210.0" y="167.5" text-anchor="middle" font-family="Noto Sans CJK SC, PingFang SC, Microsoft YaHei, Arial, sans-serif" font-size="15" font-weight="600" fill="#172033">
<tspan x="210.0" dy="0">10.0.0.0/8</tspan>
<tspan x="210.0" dy="23">较宽</tspan>
</text>
<rect x="60" y="231" width="300" height="62" rx="14" fill="#f8fafc" stroke="#334155" stroke-width="2"/>
<text x="210.0" y="255.5" text-anchor="middle" font-family="Noto Sans CJK SC, PingFang SC, Microsoft YaHei, Arial, sans-serif" font-size="15" font-weight="600" fill="#172033">
<tspan x="210.0" dy="0">10.1.0.0/16</tspan>
<tspan x="210.0" dy="23">更具体</tspan>
</text>
<rect x="60" y="319" width="300" height="62" rx="14" fill="#ecfdf5" stroke="#059669" stroke-width="2"/>
<text x="210.0" y="343.5" text-anchor="middle" font-family="Noto Sans CJK SC, PingFang SC, Microsoft YaHei, Arial, sans-serif" font-size="15" font-weight="600" fill="#172033">
<tspan x="210.0" dy="0">10.1.2.0/24</tspan>
<tspan x="210.0" dy="23">最具体</tspan>
</text>
<rect x="485" y="160" width="220" height="100" rx="14" fill="#eef2ff" stroke="#4f46e5" stroke-width="2"/>
<text x="595.0" y="203.5" text-anchor="middle" font-family="Noto Sans CJK SC, PingFang SC, Microsoft YaHei, Arial, sans-serif" font-size="18" font-weight="600" fill="#172033">
<tspan x="595.0" dy="0">目的地址</tspan>
<tspan x="595.0" dy="23">10.1.2.8</tspan>
</text>
<line x1="360" y1="86" x2="485" y2="195" stroke="#64748b" stroke-width="1.8" fill="none" marker-end="url(#arrow)" stroke-dasharray="5 5"/>
<line x1="360" y1="174" x2="485" y2="195" stroke="#64748b" stroke-width="1.8" fill="none" marker-end="url(#arrow)" stroke-dasharray="5 5"/>
<line x1="360" y1="262" x2="485" y2="195" stroke="#64748b" stroke-width="1.8" fill="none" marker-end="url(#arrow)" stroke-dasharray="5 5"/>
<line x1="360" y1="350" x2="485" y2="195" stroke="#64748b" stroke-width="1.8" fill="none" marker-end="url(#arrow)" stroke-dasharray="5 5"/>
<rect x="825" y="160" width="200" height="100" rx="14" fill="#ecfdf5" stroke="#059669" stroke-width="2"/>
<text x="925.0" y="203.5" text-anchor="middle" font-family="Noto Sans CJK SC, PingFang SC, Microsoft YaHei, Arial, sans-serif" font-size="18" font-weight="600" fill="#172033">
<tspan x="925.0" dy="0">选择 /24</tspan>
<tspan x="925.0" dy="23">前缀最长</tspan>
</text>
<line x1="705" y1="210" x2="825" y2="210" stroke="#334155" stroke-width="2.2" fill="none" marker-end="url(#arrow)"/>
<text x="760" y="395" text-anchor="middle" dominant-baseline="middle" font-family="Noto Sans CJK SC, PingFang SC, Microsoft YaHei, Arial, sans-serif" font-size="16" font-weight="700" fill="#172033">更具体的路由优先于汇总路由和默认路由</text>
</svg>