<svg xmlns="http://www.w3.org/2000/svg" width="1100" height="550" viewBox="0 0 1100 550">
<defs>
<marker id="arrow" markerWidth="10" markerHeight="10" refX="8" refY="3" orient="auto" markerUnits="strokeWidth"><path d="M0,0 L0,6 L9,3 z" fill="#334155"/></marker>
<marker id="arrowBlue" markerWidth="10" markerHeight="10" refX="8" refY="3" orient="auto" markerUnits="strokeWidth"><path d="M0,0 L0,6 L9,3 z" fill="#2563eb"/></marker>
<marker id="arrowRed" markerWidth="10" markerHeight="10" refX="8" refY="3" orient="auto" markerUnits="strokeWidth"><path d="M0,0 L0,6 L9,3 z" fill="#dc2626"/></marker>
<filter id="shadow" x="-20%" y="-20%" width="140%" height="140%"><feDropShadow dx="0" dy="2" stdDeviation="3" flood-color="#0f172a" flood-opacity="0.10"/></filter>
</defs>
<rect width="100%" height="100%" fill="#ffffff"/>
<rect x="45" y="100" width="260" height="260" rx="14" fill="#f8fafc" stroke="#334155" stroke-width="2"/>
<text x="175.0" y="189.0" text-anchor="middle" font-family="Noto Sans CJK SC, PingFang SC, Microsoft YaHei, Arial, sans-serif" font-size="15" font-weight="600" fill="#172033">
<tspan x="175.0" dy="0">R1 原路由表</tspan>
<tspan x="175.0" dy="23">Net1  3  经 R3</tspan>
<tspan x="175.0" dy="23">Net2  4  经 R2</tspan>
<tspan x="175.0" dy="23">Net4  6  经 R4</tspan>
<tspan x="175.0" dy="23">Net6  8  经 R5</tspan>
</text>
<rect x="420" y="100" width="260" height="260" rx="14" fill="#eef2ff" stroke="#4f46e5" stroke-width="2"/>
<text x="550.0" y="177.5" text-anchor="middle" font-family="Noto Sans CJK SC, PingFang SC, Microsoft YaHei, Arial, sans-serif" font-size="15" font-weight="600" fill="#172033">
<tspan x="550.0" dy="0">R2 通告距离</tspan>
<tspan x="550.0" dy="23">Net1  4</tspan>
<tspan x="550.0" dy="23">Net2  2</tspan>
<tspan x="550.0" dy="23">Net3  3</tspan>
<tspan x="550.0" dy="23">Net4  4</tspan>
<tspan x="550.0" dy="23">Net5  6</tspan>
</text>
<rect x="795" y="100" width="260" height="260" rx="14" fill="#fff7ed" stroke="#ea580c" stroke-width="2"/>
<text x="925.0" y="166.0" text-anchor="middle" font-family="Noto Sans CJK SC, PingFang SC, Microsoft YaHei, Arial, sans-serif" font-size="15" font-weight="600" fill="#172033">
<tspan x="925.0" dy="0">R1 经 R2 的候选</tspan>
<tspan x="925.0" dy="23">每项先 +1</tspan>
<tspan x="925.0" dy="23">Net1  5</tspan>
<tspan x="925.0" dy="23">Net2  3</tspan>
<tspan x="925.0" dy="23">Net3  4</tspan>
<tspan x="925.0" dy="23">Net4  5</tspan>
<tspan x="925.0" dy="23">Net5  7</tspan>
</text>
<line x1="305" y1="230" x2="420" y2="230" stroke="#334155" stroke-width="2.2" fill="none" marker-end="url(#arrow)"/>
<line x1="680" y1="230" x2="795" y2="230" stroke="#334155" stroke-width="2.2" fill="none" marker-end="url(#arrow)"/>
<rect x="325" y="420" width="450" height="80" rx="14" fill="#ecfdf5" stroke="#059669" stroke-width="2"/>
<text x="550.0" y="453.5" text-anchor="middle" font-family="Noto Sans CJK SC, PingFang SC, Microsoft YaHei, Arial, sans-serif" font-size="15" font-weight="600" fill="#172033">
<tspan x="550.0" dy="0">比较规则：新目的加入；更短替换</tspan>
<tspan x="550.0" dy="23">同一下一跳的信息即使变差也要更新</tspan>
</text>
</svg>