<svg xmlns="http://www.w3.org/2000/svg" width="1100" height="620" viewBox="0 0 1100 620">
<defs>
<marker id="arrowBlue" markerWidth="10" markerHeight="10" refX="8" refY="3" orient="auto" markerUnits="strokeWidth"><path d="M0,0 L0,6 L9,3 z" fill="#2563eb"/></marker>
<marker id="arrowGreen" markerWidth="10" markerHeight="10" refX="8" refY="3" orient="auto" markerUnits="strokeWidth"><path d="M0,0 L0,6 L9,3 z" fill="#059669"/></marker>
<marker id="arrowSlate" markerWidth="10" markerHeight="10" refX="8" refY="3" orient="auto" markerUnits="strokeWidth"><path d="M0,0 L0,6 L9,3 z" fill="#334155"/></marker>
</defs>
<rect width="100%" height="100%" fill="#ffffff"/>
<text x="170" y="45" text-anchor="middle" dominant-baseline="middle" font-family="Noto Sans CJK SC, PingFang SC, Microsoft YaHei, Arial, sans-serif" font-size="19" font-weight="700" fill="#172033">主机 A</text>
<text x="930" y="45" text-anchor="middle" dominant-baseline="middle" font-family="Noto Sans CJK SC, PingFang SC, Microsoft YaHei, Arial, sans-serif" font-size="19" font-weight="700" fill="#172033">主机 B</text>
<line x1="170" y1="75" x2="170" y2="530" stroke="#334155" stroke-width="2" fill="none"/>
<line x1="930" y1="75" x2="930" y2="530" stroke="#334155" stroke-width="2" fill="none"/>

<rect x="405" y="82" width="290" height="48" rx="12" fill="#f1f5f9" stroke="#334155" stroke-width="2"/>
<text x="550" y="112" text-anchor="middle" font-family="Noto Sans CJK SC, PingFang SC, Microsoft YaHei, Arial, sans-serif" font-size="14" font-weight="600" fill="#172033">连接已建立：ESTABLISHED</text>

<line x1="170" y1="165" x2="930" y2="165" stroke="#2563eb" stroke-width="3" fill="none" marker-end="url(#arrowBlue)"/>
<rect x="340" y="129" width="420" height="60" rx="14" fill="#f8fafc" stroke="#334155" stroke-width="2"/>
<text x="550" y="164" text-anchor="middle" font-family="Noto Sans CJK SC, PingFang SC, Microsoft YaHei, Arial, sans-serif" font-size="14" font-weight="600" fill="#172033">
<tspan x="550" dy="0">DATA, seq=p, len=500</tspan>
</text>

<line x1="930" y1="260" x2="170" y2="260" stroke="#059669" stroke-width="3" fill="none" marker-end="url(#arrowGreen)"/>
<rect x="405" y="224" width="290" height="60" rx="14" fill="#f8fafc" stroke="#334155" stroke-width="2"/>
<text x="550" y="259" text-anchor="middle" font-family="Noto Sans CJK SC, PingFang SC, Microsoft YaHei, Arial, sans-serif" font-size="14" font-weight="600" fill="#172033">
<tspan x="550" dy="0">ACK, ack=p+500</tspan>
</text>

<line x1="930" y1="355" x2="170" y2="355" stroke="#2563eb" stroke-width="3" fill="none" marker-end="url(#arrowBlue)"/>
<rect x="300" y="319" width="500" height="60" rx="14" fill="#f8fafc" stroke="#334155" stroke-width="2"/>
<text x="550" y="354" text-anchor="middle" font-family="Noto Sans CJK SC, PingFang SC, Microsoft YaHei, Arial, sans-serif" font-size="14" font-weight="600" fill="#172033">
<tspan x="550" dy="0">DATA + ACK, seq=q, len=300, ack=p+500</tspan>
</text>

<line x1="170" y1="450" x2="930" y2="450" stroke="#059669" stroke-width="3" fill="none" marker-end="url(#arrowGreen)"/>
<rect x="405" y="414" width="290" height="60" rx="14" fill="#f8fafc" stroke="#334155" stroke-width="2"/>
<text x="550" y="449" text-anchor="middle" font-family="Noto Sans CJK SC, PingFang SC, Microsoft YaHei, Arial, sans-serif" font-size="14" font-weight="600" fill="#172033">
<tspan x="550" dy="0">ACK, ack=q+300</tspan>
</text>

<rect x="290" y="535" width="520" height="58" rx="14" fill="#fff7ed" stroke="#ea580c" stroke-width="2"/>
<text x="550" y="559" text-anchor="middle" font-family="Noto Sans CJK SC, PingFang SC, Microsoft YaHei, Arial, sans-serif" font-size="14" font-weight="600" fill="#172033">
<tspan x="550" dy="0">ACK 确认的是下一个期望收到的字节序号</tspan>
<tspan x="550" dy="22">双方可以同时发送数据，也可以把确认附在数据段中</tspan>
</text>
</svg>
