<svg xmlns="http://www.w3.org/2000/svg" width="1120" height="610" viewBox="0 0 1120 610">
<defs>
<marker id="arrow" markerWidth="10" markerHeight="10" refX="8" refY="3" orient="auto" markerUnits="strokeWidth"><path d="M0,0 L0,6 L9,3 z" fill="#334155"/></marker>
<marker id="arrowBlue" markerWidth="10" markerHeight="10" refX="8" refY="3" orient="auto" markerUnits="strokeWidth"><path d="M0,0 L0,6 L9,3 z" fill="#2563eb"/></marker>
<marker id="arrowRed" markerWidth="10" markerHeight="10" refX="8" refY="3" orient="auto" markerUnits="strokeWidth"><path d="M0,0 L0,6 L9,3 z" fill="#dc2626"/></marker>
<filter id="shadow" x="-20%" y="-20%" width="140%" height="140%"><feDropShadow dx="0" dy="2" stdDeviation="3" flood-color="#0f172a" flood-opacity="0.10"/></filter>
</defs>
<rect width="100%" height="100%" fill="#ffffff"/>
<rect x="45" y="240" width="180" height="75" rx="14" fill="#eef2ff" stroke="#4f46e5" stroke-width="2"/>
<text x="135.0" y="282.5" text-anchor="middle" font-family="Noto Sans CJK SC, PingFang SC, Microsoft YaHei, Arial, sans-serif" font-size="16" font-weight="600" fill="#172033">
<tspan x="135.0" dy="0">客户端</tspan>
</text>
<rect x="275" y="240" width="190" height="75" rx="14" fill="#eff6ff" stroke="#2563eb" stroke-width="2"/>
<text x="370.0" y="282.5" text-anchor="middle" font-family="Noto Sans CJK SC, PingFang SC, Microsoft YaHei, Arial, sans-serif" font-size="16" font-weight="600" fill="#172033">
<tspan x="370.0" dy="0">本地 DNS</tspan>
</text>
<rect x="540" y="80" width="180" height="70" rx="14" fill="#f8fafc" stroke="#334155" stroke-width="2"/>
<text x="630.0" y="120.0" text-anchor="middle" font-family="Noto Sans CJK SC, PingFang SC, Microsoft YaHei, Arial, sans-serif" font-size="16" font-weight="600" fill="#172033">
<tspan x="630.0" dy="0">根服务器</tspan>
</text>
<rect x="540" y="235" width="180" height="70" rx="14" fill="#fff7ed" stroke="#ea580c" stroke-width="2"/>
<text x="630.0" y="275.0" text-anchor="middle" font-family="Noto Sans CJK SC, PingFang SC, Microsoft YaHei, Arial, sans-serif" font-size="16" font-weight="600" fill="#172033">
<tspan x="630.0" dy="0">顶级域服务器</tspan>
</text>
<rect x="540" y="390" width="180" height="70" rx="14" fill="#ecfdf5" stroke="#059669" stroke-width="2"/>
<text x="630.0" y="430.0" text-anchor="middle" font-family="Noto Sans CJK SC, PingFang SC, Microsoft YaHei, Arial, sans-serif" font-size="16" font-weight="600" fill="#172033">
<tspan x="630.0" dy="0">权威服务器</tspan>
</text>
<rect x="875" y="240" width="190" height="75" rx="14" fill="#eef2ff" stroke="#4f46e5" stroke-width="2"/>
<text x="970.0" y="282.5" text-anchor="middle" font-family="Noto Sans CJK SC, PingFang SC, Microsoft YaHei, Arial, sans-serif" font-size="16" font-weight="600" fill="#172033">
<tspan x="970.0" dy="0">Web 服务器</tspan>
</text>
<line x1="225" y1="277" x2="275" y2="277" stroke="#4f46e5" stroke-width="3" fill="none" marker-end="url(#arrow)"/>
<text x="250" y="250" text-anchor="middle" dominant-baseline="middle" font-family="Noto Sans CJK SC, PingFang SC, Microsoft YaHei, Arial, sans-serif" font-size="13" font-weight="700" fill="#172033">递归</text>
<line x1="465" y1="255" x2="540" y2="115" stroke="#334155" stroke-width="2.2" fill="none" marker-end="url(#arrow)"/>
<line x1="540" y1="150" x2="465" y2="270" stroke="#334155" stroke-width="2.2" fill="none" marker-end="url(#arrow)"/>
<line x1="465" y1="277" x2="540" y2="270" stroke="#334155" stroke-width="2.2" fill="none" marker-end="url(#arrow)"/>
<line x1="540" y1="305" x2="465" y2="292" stroke="#334155" stroke-width="2.2" fill="none" marker-end="url(#arrow)"/>
<line x1="465" y1="300" x2="540" y2="425" stroke="#334155" stroke-width="2.2" fill="none" marker-end="url(#arrow)"/>
<line x1="540" y1="460" x2="465" y2="315" stroke="#334155" stroke-width="2.2" fill="none" marker-end="url(#arrow)"/>
<text x="500" y="210" text-anchor="middle" dominant-baseline="middle" font-family="Noto Sans CJK SC, PingFang SC, Microsoft YaHei, Arial, sans-serif" font-size="14" font-weight="700" fill="#64748b">迭代查询</text>
<line x1="275" y1="320" x2="225" y2="320" stroke="#059669" stroke-width="3" fill="none" marker-end="url(#arrow)"/>
<text x="250" y="345" text-anchor="middle" dominant-baseline="middle" font-family="Noto Sans CJK SC, PingFang SC, Microsoft YaHei, Arial, sans-serif" font-size="13" font-weight="700" fill="#059669">返回 IP</text>
<line x1="225" y1="277" x2="875" y2="277" stroke="#2563eb" stroke-width="2.5" fill="none" marker-end="url(#arrowBlue)" stroke-dasharray="8 6"/>
<text x="550" y="545" text-anchor="middle" dominant-baseline="middle" font-family="Noto Sans CJK SC, PingFang SC, Microsoft YaHei, Arial, sans-serif" font-size="16" font-weight="700" fill="#172033">缓存命中时可省去根、顶级域和权威服务器查询</text>
</svg>