<svg xmlns="http://www.w3.org/2000/svg" width="1120" height="590" viewBox="0 0 1120 590">
<defs>
<marker id="arrow" markerWidth="10" markerHeight="10" refX="8" refY="3" orient="auto" markerUnits="strokeWidth"><path d="M0,0 L0,6 L9,3 z" fill="#334155"/></marker>
<marker id="arrowBlue" markerWidth="10" markerHeight="10" refX="8" refY="3" orient="auto" markerUnits="strokeWidth"><path d="M0,0 L0,6 L9,3 z" fill="#2563eb"/></marker>
<marker id="arrowRed" markerWidth="10" markerHeight="10" refX="8" refY="3" orient="auto" markerUnits="strokeWidth"><path d="M0,0 L0,6 L9,3 z" fill="#dc2626"/></marker>
<filter id="shadow" x="-20%" y="-20%" width="140%" height="140%"><feDropShadow dx="0" dy="2" stdDeviation="3" flood-color="#0f172a" flood-opacity="0.10"/></filter>
</defs>
<rect width="100%" height="100%" fill="#ffffff"/>
<rect x="45" y="190" width="190" height="90" rx="14" fill="#eef2ff" stroke="#4f46e5" stroke-width="2"/>
<text x="140.0" y="228.5" text-anchor="middle" font-family="Noto Sans CJK SC, PingFang SC, Microsoft YaHei, Arial, sans-serif" font-size="17" font-weight="600" fill="#172033">
<tspan x="140.0" dy="0">发送方 A</tspan>
<tspan x="140.0" dy="23">消息 M</tspan>
</text>
<rect x="320" y="75" width="210" height="90" rx="14" fill="#f8fafc" stroke="#334155" stroke-width="2"/>
<text x="425.0" y="113.5" text-anchor="middle" font-family="Noto Sans CJK SC, PingFang SC, Microsoft YaHei, Arial, sans-serif" font-size="17" font-weight="600" fill="#172033">
<tspan x="425.0" dy="0">哈希函数</tspan>
<tspan x="425.0" dy="23">H(M)</tspan>
</text>
<rect x="320" y="300" width="210" height="90" rx="14" fill="#fff7ed" stroke="#ea580c" stroke-width="2"/>
<text x="425.0" y="338.5" text-anchor="middle" font-family="Noto Sans CJK SC, PingFang SC, Microsoft YaHei, Arial, sans-serif" font-size="17" font-weight="600" fill="#172033">
<tspan x="425.0" dy="0">A 的私钥</tspan>
<tspan x="425.0" dy="23">对摘要签名</tspan>
</text>
<rect x="650" y="190" width="220" height="100" rx="14" fill="#eff6ff" stroke="#2563eb" stroke-width="2"/>
<text x="760.0" y="233.5" text-anchor="middle" font-family="Noto Sans CJK SC, PingFang SC, Microsoft YaHei, Arial, sans-serif" font-size="17" font-weight="600" fill="#172033">
<tspan x="760.0" dy="0">消息 M + 签名</tspan>
<tspan x="760.0" dy="23">通过网络发送</tspan>
</text>
<rect x="930" y="80" width="150" height="90" rx="14" fill="#f8fafc" stroke="#334155" stroke-width="2"/>
<text x="1005.0" y="118.5" text-anchor="middle" font-family="Noto Sans CJK SC, PingFang SC, Microsoft YaHei, Arial, sans-serif" font-size="15" font-weight="600" fill="#172033">
<tspan x="1005.0" dy="0">重新计算</tspan>
<tspan x="1005.0" dy="23">H(M)</tspan>
</text>
<rect x="930" y="305" width="150" height="90" rx="14" fill="#ecfdf5" stroke="#059669" stroke-width="2"/>
<text x="1005.0" y="343.5" text-anchor="middle" font-family="Noto Sans CJK SC, PingFang SC, Microsoft YaHei, Arial, sans-serif" font-size="15" font-weight="600" fill="#172033">
<tspan x="1005.0" dy="0">A 的公钥</tspan>
<tspan x="1005.0" dy="23">验证签名</tspan>
</text>
<line x1="235" y1="235" x2="320" y2="120" stroke="#334155" stroke-width="2.2" fill="none" marker-end="url(#arrow)"/>
<line x1="425" y1="165" x2="425" y2="300" stroke="#334155" stroke-width="2.2" fill="none" marker-end="url(#arrow)"/>
<line x1="530" y1="345" x2="650" y2="240" stroke="#334155" stroke-width="2.2" fill="none" marker-end="url(#arrow)"/>
<line x1="235" y1="235" x2="650" y2="240" stroke="#334155" stroke-width="2.2" fill="none" marker-end="url(#arrow)"/>
<line x1="870" y1="220" x2="930" y2="125" stroke="#334155" stroke-width="2.2" fill="none" marker-end="url(#arrow)"/>
<line x1="870" y1="260" x2="930" y2="350" stroke="#334155" stroke-width="2.2" fill="none" marker-end="url(#arrow)"/>
<rect x="745" y="450" width="310" height="80" rx="14" fill="#ecfdf5" stroke="#059669" stroke-width="2"/>
<text x="900.0" y="483.5" text-anchor="middle" font-family="Noto Sans CJK SC, PingFang SC, Microsoft YaHei, Arial, sans-serif" font-size="15" font-weight="600" fill="#172033">
<tspan x="900.0" dy="0">比较两份摘要</tspan>
<tspan x="900.0" dy="23">一致 → 身份可信且消息未被修改</tspan>
</text>
<line x1="1005" y1="170" x2="900" y2="450" stroke="#334155" stroke-width="2.2" fill="none" marker-end="url(#arrow)"/>
<line x1="1005" y1="305" x2="900" y2="450" stroke="#334155" stroke-width="2.2" fill="none" marker-end="url(#arrow)"/>
</svg>